<svg id="Layer_1" data-name="Layer 1" xmlns="http://www.w3.org/2000/svg" viewBox="0 0 800 800"><defs><style>.cls-1{fill:#ff7300;}.cls-2{fill:#fff;}</style></defs><title>CCM_stucco</title><polygon class="cls-1" points="115.16 242 115.16 541.39 234.71 541.39 234.71 512.29 144.27 512.29 144.27 271.11 655.73 271.11 655.73 512.29 556.97 512.29 556.97 541.39 684.84 541.39 684.84 242 115.16 242"/><path class="cls-2" d="M278.28,540.24c-.07,3.18,2.29,5.4,5.84,5.4s5.69-1.7,5.69-4.66c0-4.21-4.58-4.51-7.17-4.73-8.06-.59-16.12-5-16.12-15.75,0-10.13,7-16.41,17.3-16.41s17.3,6.8,17,16.93h-12A4.66,4.66,0,0,0,284,515.7c-3,0-5,1.77-5,4.73,0,2.29,1.7,3.92,5.69,4.44,9.39,1,17.67,3.7,17.67,16.27,0,9.91-7.25,16.19-18.19,16.19-11.16,0-18.41-6.8-18.11-17.08Z"/><path class="cls-2" d="M338.09,504.83v11.83H328v39.92H315.54V516.66h-10.2V504.83Z"/><path class="cls-2" d="M343.34,539.21V504.83h12.79v34.08c0,3.84,2.14,6.43,5.4,6.43s5.25-2.59,5.25-6.43V504.83H379.5v34.38c0,10.79-7.25,18-18,18S343.34,550,343.34,539.21Z"/><path class="cls-2" d="M408.41,504.09c9.17,0,19.45,6,20.92,19.81H417.06c-1.33-5.32-4.29-7.61-8.65-7.61-5.84,0-9.76,5.77-9.76,14.42s3.92,14.2,9.83,14.2c4.36,0,7.69-2.59,8.65-8.21h12.35c-1.63,14.71-11.53,20.55-21.07,20.55-13.46,0-22.48-10.57-22.48-26.47S395,504.09,408.41,504.09Z"/><path class="cls-2" d="M456.09,504.09c9.17,0,19.45,6,20.92,19.81H464.74c-1.33-5.32-4.29-7.61-8.65-7.61-5.84,0-9.76,5.77-9.76,14.42s3.92,14.2,9.83,14.2c4.36,0,7.69-2.59,8.65-8.21h12.35c-1.63,14.71-11.53,20.55-21.07,20.55-13.46,0-22.48-10.57-22.48-26.47S442.64,504.09,456.09,504.09Z"/><path class="cls-2" d="M504,557.32c-13.6,0-22.7-10.65-22.7-26.62s9.09-26.62,22.7-26.62,22.55,10.65,22.55,26.62S517.53,557.32,504,557.32Zm0-12.64c5.84,0,9.68-5.69,9.68-14s-3.84-13.9-9.68-13.9-10,5.62-10,13.9S498,544.68,504,544.68Z"/><path class="cls-2" d="M592.73,300.22l-73.52,67-73.76-67H423.91v11.69c-14.55-7.78-28.9-12.19-45.45-12.19a90.06,90.06,0,0,0-56,19.48,89.47,89.47,0,0,0-56-19.48A90.39,90.39,0,1,0,322.31,461a90.21,90.21,0,0,0,120.17-7.24h.12l-18.2,23.18-.48.76v2.38h48.86V387.94l47.42,42.91,47.18-43.15v92.36h47.82V300.22Zm-368.79,89.9c0-24.59,17.84-42.42,42.42-42.42,11,0,20.57,3.45,27.82,9.49h0c1,.87,2.53,2.29,2.55,2.31h0l13.83-13.93,12.11-12.19-25.8,39.69-5.31-8.22a90.25,90.25,0,0,0,2.56,58.07c-7.25,6.18-16.84,9.62-27.77,9.62C241.78,432.54,223.94,414.7,223.94,390.11Zm184.89,30.37c-7.47,7.71-18.13,12.05-30.43,12.05-24.59,0-42.45-17.84-42.45-42.42s17.82-42.42,42.41-42.42c12.29,0,23,4.34,30.47,11.81l15.07-15.08v.05l11.94-11.61s-5.7,7.22-11.94,15.79v86.58Z"/></svg>