<svg id="Layer_1" data-name="Layer 1" xmlns="http://www.w3.org/2000/svg" viewBox="0 0 800 800"><defs><style>.cls-1{fill:#eaeaea;}</style></defs><title>gamify</title><path class="cls-1" d="M355.65,403.36,346.82,466q-2.32,19.25-13.39,27.72t-30.9,8.47q-16.94,0-26.63-3.91l1.59-12.59q4.92.14,20.41.14,23.16,0,27.5-13.17.58-1.59,1.52-5t2-6.22a22.26,22.26,0,0,1,2.61-5.14,40.28,40.28,0,0,1-13.53,12.45,37.34,37.34,0,0,1-18.17,4.78q-13,.29-17.88-8.69t-1.81-29.53a82.66,82.66,0,0,1,4-16.65,42.41,42.41,0,0,1,5.43-10.64,19.39,19.39,0,0,1,7.38-5.94,28.74,28.74,0,0,1,8.54-2.61A85.68,85.68,0,0,1,315.7,399,167.79,167.79,0,0,1,355.65,403.36Zm-22.87,11.44H321.2q-10.57,0-14,3.69t-5.43,17.15q-2,13.61-.94,17.52t6.3,3.62q9.7-.43,21.42-13.46Z"/><path class="cls-1" d="M422.67,472.4H406l.15-12.88q-11,14.19-29.24,14.62-13.46.43-18.17-8.76t-1.67-30a77.75,77.75,0,0,1,4.05-16.57,39.37,39.37,0,0,1,5.79-10.64,20,20,0,0,1,8.25-5.94,39.34,39.34,0,0,1,9.77-2.61A101.27,101.27,0,0,1,396.9,399a155.6,155.6,0,0,1,18.38,1.3,124.93,124.93,0,0,1,17.08,3ZM409.5,414.79h-11q-10.42,0-14.19,3.62t-5.65,17.23q-1.88,13.75-.87,17.59t6.22,3.55q9.55-.14,21.42-13.46Z"/><path class="cls-1" d="M457.84,401v12.88q7.82-7.82,14.55-11.36A29.88,29.88,0,0,1,486.5,399q7.82,0,12.3,3.47a13.84,13.84,0,0,1,5.21,9.84Q517.48,399,530.94,399q9.84,0,14.4,5.43t3.26,14.84l-7.38,53.12H519.94l6.66-47.33q.58-4.49-.72-6.22t-4.49-1.74a15.55,15.55,0,0,0-7.67,2.32,72,72,0,0,0-11,8.54l-6.22,44.44H475.94l6.51-47.33q.72-4.34-.43-6.15t-4.63-1.81a16.54,16.54,0,0,0-7.89,2.24,66.62,66.62,0,0,0-10.78,8l-6.22,45H431.21l10-71.36Z"/><path class="cls-1" d="M571.19,472.4H549.91l10-71.36h21.28ZM570,369.48h9q6.8,0,6.08,6.66l-1,7.82q-.87,5.79-6.95,5.79H568q-6.66,0-5.79-6.66l1-7.67Q563.8,369.49,570,369.48Z"/><path class="cls-1" d="M643.56,383.82H630.82q-5.64,0-8.18,2t-3.4,7.6l-1,7.67h19.54l-1.88,14.33H616.06l-9.12,63.55q-3,21.71-25,21.71A192,192,0,0,1,562.06,499l3.33-14.19h9.26q5.79,0,8.32-2t3.4-7.6l8.54-59.93h-12.3l1.74-13.61L597,401l1.59-11.15q3-21.71,25-21.71A154.9,154.9,0,0,1,647,369.63Z"/><path class="cls-1" d="M687.42,401H710a225.54,225.54,0,0,1-9,33.66,204.15,204.15,0,0,1-12.67,29.46q-10.86,19.68-23.23,28.15t-29.46,9.77L633,488.91A80,80,0,0,0,649.28,483q6.3-3.26,12.09-10.64h-8.54a8.75,8.75,0,0,1-5.86-2,9.36,9.36,0,0,1-3.11-5.21L632.12,401h23l6.8,54.57a2.29,2.29,0,0,0,2.46,2.32h5.79l.58-1.3Q682.21,432.89,687.42,401Z"/><path class="cls-1" d="M429.74,359.23a7.73,7.73,0,0,0-3-.38,5.12,5.12,0,0,0-3.7,1.08q-1.08,1.08-1.6,4.45l5.61-.52a4.19,4.19,0,0,0,2.3-.67,3,3,0,0,0,.93-2Q430.48,359.61,429.74,359.23Zm73.38.67a4.19,4.19,0,0,0-1,1.81,24.56,24.56,0,0,0-.64,3.23,13.88,13.88,0,0,0-.12,4.82q.36,1.07,2,1.07a6.11,6.11,0,0,0,3.1-.88,18.57,18.57,0,0,0,3.41-2.7l1.2-8.32-3.54-.07a16.1,16.1,0,0,0-2.72.17A3.07,3.07,0,0,0,503.12,359.91Zm-20-.91a6.62,6.62,0,0,0-2.92,1,18.09,18.09,0,0,0-3.65,2.68L475.34,371q1.62,0,3.54,0a15.92,15.92,0,0,0,2.72-.17,3.1,3.1,0,0,0,1.63-.86,3.93,3.93,0,0,0,1-1.82,28.88,28.88,0,0,0,.62-3.27,13.93,13.93,0,0,0,.12-4.82Q484.62,359,483.08,359Zm50.65-17.19H410.61a15,15,0,0,0-15,15v12.5a15,15,0,0,0,15,15h69.3l43,20.5-13.7-20.5h24.5a15,15,0,0,0,15-15V356.8A15,15,0,0,0,533.73,341.8Zm-120,31.81a3.77,3.77,0,0,1-3-1.17,4,4,0,0,1-.74-3.3l2.82-19.92h3.3l-2.72,19.3a2,2,0,0,0,.24,1.6,2.09,2.09,0,0,0,1.58.46h1.58l.14,2.62A8.72,8.72,0,0,1,413.69,373.61Zm19.92-12.11a5.16,5.16,0,0,1-1.93,3.53,9.3,9.3,0,0,1-4.64,1.32l-5.81.52q0,2.37,1,3.22a5.08,5.08,0,0,0,3.23.84,60.91,60.91,0,0,0,6.19-.41l.21,2.24a19.56,19.56,0,0,1-6.91,1q-4.3,0-6-2.25t-1-7q.65-4.85,2.67-6.62t6.62-1.77q3.92,0,5.33,1.38A4.49,4.49,0,0,1,433.61,361.5Zm12.21-2.41h-5.19l-1.34,9.43a2,2,0,0,0,.22,1.63,2.19,2.19,0,0,0,1.6.43h2.51l.14,2.58a14.22,14.22,0,0,1-3.92.45,3.86,3.86,0,0,1-3.22-1.24,4.57,4.57,0,0,1-.67-3.54l1.38-9.74h-3.06l.31-2.41,3.13-.17.72-4.92h3.27l-.69,4.92h5.16Zm1.65-2.65a34.22,34.22,0,0,0,1.17-3.85,1,1,0,0,1-.79-.24.87.87,0,0,1-.24-.72l.31-1.86a1.41,1.41,0,0,1,.43-.84,1.79,1.79,0,0,1,1-.22h1q1.27,0,1,1.2l-.28,2a13,13,0,0,1-2.06,5ZM465.4,359q-4.37-.14-6.67-.17a12.37,12.37,0,0,0-3,.24,1.35,1.35,0,0,0-.91,1.24,1.43,1.43,0,0,0,.33,1.27,6.26,6.26,0,0,0,1.67,1l4.54,2.06a7.41,7.41,0,0,1,2.82,2,3.87,3.87,0,0,1,.52,2.87,5,5,0,0,1-.58,1.91,4,4,0,0,1-1,1.22,4.4,4.4,0,0,1-1.65.69,13.3,13.3,0,0,1-2.06.31q-1,.07-2.6.07t-2.6-.05q-.95-.05-2.1-.21l-1.81-.22.38-2.48q1.93.17,5.26.17a17.11,17.11,0,0,0,4.26-.34,1.67,1.67,0,0,0,1.27-1.38,1.71,1.71,0,0,0,0-.34,2.06,2.06,0,0,0,0-.29.58.58,0,0,0-.1-.24l-.14-.21a.76.76,0,0,0-.19-.19l-.24-.17-.31-.17-.33-.16-.38-.17-.43-.19L454.76,365a6.73,6.73,0,0,1-2.68-2,4.63,4.63,0,0,1,1.41-6.07,10.89,10.89,0,0,1,5.13-.82,52.6,52.6,0,0,1,7.19.58Zm22.84,6.09a20.21,20.21,0,0,1-1.07,4.58,6.16,6.16,0,0,1-1.79,2.63,5.78,5.78,0,0,1-2.27,1.15,13.35,13.35,0,0,1-3,.28,35.42,35.42,0,0,1-5.3-.45,22.31,22.31,0,0,1-.24,3.2l-.59,3.68h-3.34L474,356.52h2.61l-.17,3.58a16.85,16.85,0,0,1,3.65-2.82,7.57,7.57,0,0,1,3.72-1.17q3,0,4.06,1.93T488.24,365.12Zm5.54,8.5a3.77,3.77,0,0,1-3-1.17,4,4,0,0,1-.74-3.3l2.82-19.92h3.3l-2.72,19.3a2,2,0,0,0,.24,1.6,2.09,2.09,0,0,0,1.58.46h1.58l.14,2.62A8.72,8.72,0,0,1,493.78,373.61Zm18.54-.31H509.7l.14-3.1a9.25,9.25,0,0,1-7.22,3.51q-3.06,0-4.13-2t-.38-7a20.46,20.46,0,0,1,1.07-4.56,5.86,5.86,0,0,1,1.82-2.63,6.38,6.38,0,0,1,2.34-1.15,13.57,13.57,0,0,1,3.1-.29,38.83,38.83,0,0,1,8.22.89Zm15.28-2.92a23.29,23.29,0,0,1-5.32,7.22,13.31,13.31,0,0,1-6.28,2.75l-.62-2.37a12.66,12.66,0,0,0,3.85-1.55,11.65,11.65,0,0,0,3.16-3.13h-1.55a2.11,2.11,0,0,1-1.34-.43,1.86,1.86,0,0,1-.69-1.19l-3.23-15.17h3.51l2.55,13.59a.63.63,0,0,0,.69.58H524l.38-.7.31-.6A51.7,51.7,0,0,0,529,356.52h3.48A56.75,56.75,0,0,1,527.59,370.38Z"/><path class="cls-1" d="M253,414.32l-107.1-52.7a29.83,29.83,0,0,0-42.93,28.74L110,496a29.76,29.76,0,0,0,46.35,22.81l15-10.07.17-.08,7.05-4.08a3.77,3.77,0,0,0,1.46-4.8,25.24,25.24,0,0,1-1.78-11.71q0-.52.11-1t.11-.78c.05-.32.11-.63.17-.95s.11-.55.17-.82.14-.59.22-.89.15-.56.24-.84.18-.56.28-.84.2-.56.3-.83.22-.55.33-.82.23-.54.36-.81.26-.53.39-.79.27-.53.42-.79.29-.5.44-.75.32-.52.49-.78l.47-.69q.28-.4.57-.78l.48-.61q.33-.4.67-.8L185,473q.38-.4.77-.79l.49-.47q.41-.38.84-.74l.51-.42c.29-.24.59-.46.9-.69l.53-.38c.31-.21.62-.42.94-.62l.56-.34c.32-.19.64-.37,1-.55l.6-.31,1-.47.64-.28,1-.39.67-.24,1-.32.67-.18,1.06-.25.66-.13,1.09-.18.66-.08,1.1-.1.66,0,1.1,0h.66l1.11.05.64.05,1.15.13.59.09c.4.07.8.14,1.2.23l.52.12q.63.15,1.26.33a25.23,25.23,0,0,1,6,2.63s0,.05,0,.07c2.41,1.44,2.84,2.35,4.32,3.25,3.34,3.26,6.59-.57,7.24-1l27.34-18.47A22.05,22.05,0,0,0,253,414.32Zm-43.11,18.33A10.19,10.19,0,1,1,199,423.16,10.19,10.19,0,0,1,209.85,432.65Zm-90.28-43.39a13.17,13.17,0,0,1,18.95-12.68l62.83,30.92A25.88,25.88,0,0,0,184.17,454l-.71.4-.53.27c-.54.31-1.06.65-1.58,1l-.24.15-.84.57-1,.71-.32.22a41.12,41.12,0,0,0-20.51-18.22,25.88,25.88,0,0,0-37.91-35.25ZM149.49,421a10.19,10.19,0,1,1-10.84-9.49A10.2,10.2,0,0,1,149.49,421ZM147,505a13.16,13.16,0,0,1-20.46-10.07l-2.31-34.78a25.25,25.25,0,0,1,43.18,10.46,40.91,40.91,0,0,0-5,18.22c0,.11,0,.2,0,.31a40.85,40.85,0,0,0,.18,5.4Zm99.16-66.38-23.28,15.73a40.35,40.35,0,0,0-5.24-2.44,25.81,25.81,0,0,0,1.5-35.64l26.44,13a5.39,5.39,0,0,1,.59,9.34Z"/></svg>