<svg id="Layer_1" data-name="Layer 1" xmlns="http://www.w3.org/2000/svg" viewBox="0 0 250 250"><defs><style>.cls-1{fill:#ea4c89;}</style></defs><title>Artboard 2</title><path class="cls-1" d="M125,241.56A116.56,116.56,0,1,1,241.56,125,116.69,116.69,0,0,1,125,241.56ZM223.3,141c-3.41-1.08-30.82-9.25-62-4.26a429.67,429.67,0,0,1,19.34,71A99.73,99.73,0,0,0,223.3,141ZM163.89,216.8a413.88,413.88,0,0,0-21.24-75.5l-.66.22C85.84,161.09,65.68,200,63.89,203.69a99.42,99.42,0,0,0,100,13.1ZM51,191.72c2.26-3.86,29.58-49.1,80.93-65.7q1.95-.63,3.92-1.18c-2.5-5.66-5.22-11.32-8.07-16.9-49.72,14.88-98,14.26-102.32,14.17,0,1-.05,2-.05,3A99.16,99.16,0,0,0,51,191.72Zm-23.49-87a371.35,371.35,0,0,0,92-12.13A635.22,635.22,0,0,0,82.67,35.05,99.92,99.92,0,0,0,27.54,104.76Zm74.13-76.4a531.39,531.39,0,0,1,37.15,58.28c35.4-13.27,50.39-33.41,52.18-36a99.44,99.44,0,0,0-89.33-22.32Zm100.4,33.83C200,65,183.28,86.42,146.47,101.45c2.32,4.74,4.54,9.57,6.61,14.42q1.1,2.58,2.14,5.14c33.13-4.17,66,2.51,69.33,3.2A99.09,99.09,0,0,0,202.07,62.19Z"/></svg>