<svg id="Layer_1" data-name="Layer 1" xmlns="http://www.w3.org/2000/svg" viewBox="0 0 500 500"><defs><style>.cls-1{fill:none;stroke:#fff;stroke-miterlimit:10;stroke-width:8px;}</style></defs><title>cj</title><path class="cls-1" d="M285.75,107.25h-57v108.5h79a52.15,52.15,0,0,1,52,52h0a52.15,52.15,0,0,1-52,52H222l-35.27,120.5s69,.5,100,.5h0a167,167,0,0,0,167-167V107.25H310.25"/><path class="cls-1" d="M298.75,308.25v-40h-67.5a41.62,41.62,0,0,1-41.5-41.5h0a41.62,41.62,0,0,1,41.5-41.5h67.5v-126h-85.5a167,167,0,0,0-167,167h0a167,167,0,0,0,167,167h85.5v-61"/></svg>