<svg id="Layer_1" data-name="Layer 1" xmlns="http://www.w3.org/2000/svg" viewBox="0 0 84.14 69.61"><defs><style>.cls-1{fill:#fff;fill-rule:evenodd;}</style></defs><title>swipe-down</title><path class="cls-1" d="M80.79,46.82C76.4,40.77,75,27.5,68.55,18.63L61.7,9.2A6.67,6.67,0,0,0,50,10.81a6.67,6.67,0,0,0-7.71.09h0A6.64,6.64,0,0,0,40,14a6.67,6.67,0,0,0-9.88,2.77L21.75,5.25A6.67,6.67,0,0,0,9.7,9.46v52L5.88,57.59a1.67,1.67,0,0,0-2.36,0h0a1.67,1.67,0,0,0,0,2.36l6.67,6.67a1.67,1.67,0,0,0,2.36,0l6.67-6.67a1.67,1.67,0,1,0-2.36-2.36L13,61.41V15.94l17,23.47-6.15-2.74a6.67,6.67,0,0,0-5.42,12.18l4.38,1.95c4.75,2.13,10,7.79,14.75,9.92,6.65,3,16.47,6.11,17,6.3a1.67,1.67,0,0,0,1-3.17c-.55-.18-11.22-3.71-16.71-6.18C35.25,56,29.42,50,24.24,47.76l-4.37-1.95a3.33,3.33,0,0,1,2.71-6.09L34,44.79c1.19.65,3.39-1,2.22-2.64l-22.53-31A3.31,3.31,0,0,1,13,9.34v0s0,0,0,0a3.33,3.33,0,0,1,6-2.05L35.71,30.14a1.67,1.67,0,0,0,2.7-2l-4.9-6.74a3.33,3.33,0,1,1,5.39-3.92l4.9,6.74a1.67,1.67,0,1,0,2.7-2l-2.94-4A3.33,3.33,0,1,1,49,14.34l4.89,6.74a1.67,1.67,0,0,0,2.7-2l-2.94-4A3.33,3.33,0,1,1,59,11.16l6.86,9.44C72.27,29.43,73,41.76,78.09,48.78a1.67,1.67,0,0,0,2.7-2Z"/></svg>